<svg id="Layer_1" data-name="Layer 1" xmlns="http://www.w3.org/2000/svg" viewBox="0 0 1080 1080"><defs><style>.cls-1{fill:#ffb703;}.cls-2{fill:none;stroke:#219ebc;stroke-miterlimit:10;stroke-width:6.07px;}.cls-3{fill:#8ecae6;}</style></defs><path class="cls-1" d="M310.28,569V500H337.4a21,21,0,0,1,11,2.68,17.76,17.76,0,0,1,6.71,6.93,18.76,18.76,0,0,1,2.25,8.93,16.84,16.84,0,0,1-2.8,9.78,14,14,0,0,1-7.55,5.56l-.09-2.35a17.38,17.38,0,0,1,10.16,6.35,17.8,17.8,0,0,1,3.54,11,22,22,0,0,1-2.42,10.59,17,17,0,0,1-7,7A23.07,23.07,0,0,1,340,569Zm10.16-40.83h16.82a11,11,0,0,0,5-1.12,8.75,8.75,0,0,0,3.54-3.26,9.6,9.6,0,0,0,1.32-5.15,8.76,8.76,0,0,0-2.68-6.61,9.91,9.91,0,0,0-7.19-2.59H320.44Zm0,31.29h18a14.07,14.07,0,0,0,6.11-1.29,10.19,10.19,0,0,0,4.26-3.71,10.45,10.45,0,0,0,1.56-5.78A11.64,11.64,0,0,0,349,543a10,10,0,0,0-3.93-4,12,12,0,0,0-6-1.46H320.44Z"/><path class="cls-1" d="M392.65,570.43a25.25,25.25,0,0,1-13.46-3.5,23.3,23.3,0,0,1-8.8-9.66,31.24,31.24,0,0,1-3.09-14.2,30.79,30.79,0,0,1,3.17-14.26,23.31,23.31,0,0,1,8.86-9.58,27.62,27.62,0,0,1,26.79.07,23.5,23.5,0,0,1,8.81,9.63,33.75,33.75,0,0,1,0,28.39,23.46,23.46,0,0,1-8.84,9.63A25.26,25.26,0,0,1,392.65,570.43Zm0-9.44q7.43,0,11.09-5t3.67-12.91q0-8.1-3.71-13t-11.05-4.86a14.13,14.13,0,0,0-8.29,2.28,13.51,13.51,0,0,0-4.84,6.27,25.23,25.23,0,0,0-1.58,9.28q0,8.14,3.74,13T392.65,561Z"/><path class="cls-1" d="M451.06,570.43a25.25,25.25,0,0,1-13.46-3.5,23.37,23.37,0,0,1-8.8-9.66,31.24,31.24,0,0,1-3.09-14.2,30.79,30.79,0,0,1,3.17-14.26,23.31,23.31,0,0,1,8.86-9.58,27.62,27.62,0,0,1,26.79.07,23.5,23.5,0,0,1,8.81,9.63,33.75,33.75,0,0,1,0,28.39,23.46,23.46,0,0,1-8.84,9.63A25.26,25.26,0,0,1,451.06,570.43Zm0-9.44q7.43,0,11.09-5t3.67-12.91q0-8.1-3.71-13t-11.05-4.86a14.13,14.13,0,0,0-8.29,2.28,13.51,13.51,0,0,0-4.84,6.27,25.23,25.23,0,0,0-1.58,9.28q0,8.14,3.74,13T451.06,561Z"/><path class="cls-1" d="M487,569l.05-69h10.16v42.17l20.31-24.92h12.75l-21.47,25.87L532.43,569H518.82l-21.66-24.92V569Z"/><path class="cls-1" d="M537.21,569V500h9.06l25,51.89L596.15,500h9.16v69h-9.49v-47.2L573.54,569H569l-22.32-47.25V569Z"/><path class="cls-1" d="M625.72,592l10-27.27.15,8-22.57-55.53h10.44l16.87,42.88h-3.07l16.1-42.88h10.16L635.25,592Z"/><path class="cls-1" d="M671.29,569V500h40.87v10H681.3v19.46h25.11v10.06H681.3V569Z"/><path class="cls-1" d="M721.74,569V498.55h10V569Z"/><path class="cls-1" d="M747.09,508.76V499h10v9.73Zm0,60.23V517.24h10V569Z"/><path class="cls-1" d="M792,570.43a21.53,21.53,0,0,1-12.49-3.6,23.43,23.43,0,0,1-8.09-9.8,35.41,35.41,0,0,1,0-27.93,23.37,23.37,0,0,1,8.17-9.73,22,22,0,0,1,12.58-3.57,20.71,20.71,0,0,1,12.34,3.57,22.07,22.07,0,0,1,7.57,9.75,36.09,36.09,0,0,1,2.56,14A35.71,35.71,0,0,1,812.11,557a22.39,22.39,0,0,1-7.61,9.8A20.82,20.82,0,0,1,792,570.43Zm.76,23a25.26,25.26,0,0,1-8.07-1.3,23.19,23.19,0,0,1-7.12-3.81,21,21,0,0,1-5.32-6.2l9.25-4.7a10.5,10.5,0,0,0,4.79,4.84,14.73,14.73,0,0,0,6.57,1.53,16.21,16.21,0,0,0,7.28-1.5,10.19,10.19,0,0,0,4.58-4.53,15.82,15.82,0,0,0,1.51-7.48V555.81h1.2V517.24h8.86v53.14c0,1.37-.05,2.68-.14,3.93a29.9,29.9,0,0,1-.53,3.73,18.13,18.13,0,0,1-4.19,8.63,18.83,18.83,0,0,1-7.86,5.08A32.41,32.41,0,0,1,792.8,593.43Zm.63-32.06a13,13,0,0,0,8.05-2.35,13.38,13.38,0,0,0,4.55-6.47,28.67,28.67,0,0,0,1.44-9.48,28.19,28.19,0,0,0-1.47-9.49,13.34,13.34,0,0,0-4.5-6.42,12.44,12.44,0,0,0-7.74-2.3,13.13,13.13,0,0,0-8.19,2.44,14.48,14.48,0,0,0-4.77,6.57,25.77,25.77,0,0,0-1.56,9.2,26.2,26.2,0,0,0,1.56,9.27,14.65,14.65,0,0,0,4.7,6.59A12.56,12.56,0,0,0,793.43,561.37Z"/><path class="cls-1" d="M829.7,569V500h9v37.23h1.2V569Zm36.37,0V543.54a39.16,39.16,0,0,0-.51-6.2,19.3,19.3,0,0,0-1.91-5.92,11.5,11.5,0,0,0-4-4.41,12.09,12.09,0,0,0-6.68-1.67,14.51,14.51,0,0,0-5.08.88,10.62,10.62,0,0,0-4.2,2.85,13.83,13.83,0,0,0-2.82,5.18,25.67,25.67,0,0,0-1,7.81l-6.23-2.35a28.05,28.05,0,0,1,2.63-12.43,19.8,19.8,0,0,1,7.57-8.41,22.39,22.39,0,0,1,11.94-3,20.94,20.94,0,0,1,9,1.72,16.66,16.66,0,0,1,5.92,4.53,21,21,0,0,1,3.48,6.11,31.59,31.59,0,0,1,1.62,6.47,41.5,41.5,0,0,1,.44,5.56V569Z"/><path class="cls-1" d="M882.93,525.29v-8H918.3v8ZM918.3,569a42.63,42.63,0,0,1-9.59.81,21.52,21.52,0,0,1-8.38-1.82,11.39,11.39,0,0,1-5.56-5.27,15.16,15.16,0,0,1-1.8-6.54c-.08-2.22-.12-4.73-.12-7.55V502.86h10.06v45.28c0,2.08,0,3.89.08,5.42a8.06,8.06,0,0,0,1,3.88,6.79,6.79,0,0,0,5.49,3.38,36.22,36.22,0,0,0,8.84-.31Z"/><circle class="cls-2" cx="186.4" cy="540" r="72.32"/><path class="cls-3" d="M219.41,523c4.16,4.51,11.45,2.87,17.33,3.4,10.84,1,21.66,1.9,31.95,5.68,3.66,1.34,8.51,2.44,8.17,7.49-.31,4.8-5.1,5.93-8.83,7a126.15,126.15,0,0,1-35.73,5c-7.4-.12-12.82,2.24-17.82,7.81-15.33,17-31.14,33.67-46.76,50.45l.2-.22-13.25,15.55C141.35,612,141,608.7,150.48,596.63c10.66-13.59,21.38-27.14,33.36-42.35-11.16-.85-20.89-1.54-30.61-2.34-10-.83-20-1.77-30.48-2.69-4.22,4.84-4.17,11.65-7.34,18.33-5.93-9.16-3.35-22.94-19.48-27.67,15.39-5.76,13.91-19.15,19.42-29.33,2.42,6.68,4.59,12.64,6.75,18.6l61.65-4.83c-11-14-20.59-27.57-31.64-39.88-9.17-10.2-10.78-19.18-.11-29.62"/></svg>