<svg width="824" height="172" viewBox="0 0 824 172" fill="none" xmlns="http://www.w3.org/2000/svg">
<path d="M215.281 115V46.0004H242.401C246.244 45.8698 250.049 46.7969 253.401 48.6804C256.234 50.3271 258.557 52.7256 260.111 55.6104C261.592 58.3539 262.365 61.423 262.361 64.5404C262.458 68.0111 261.48 71.427 259.561 74.3204C257.758 76.9864 255.092 78.95 252.011 79.8804L251.921 77.5304C255.954 78.376 259.554 80.6264 262.081 83.8804C264.452 87.0514 265.697 90.9221 265.621 94.8804C265.712 98.5572 264.88 102.198 263.201 105.47C261.614 108.446 259.177 110.883 256.201 112.47C252.741 114.244 248.888 115.114 245.001 115H215.281ZM225.441 74.1704H242.261C243.993 74.1958 245.706 73.8121 247.261 73.0504C248.723 72.3159 249.949 71.1865 250.801 69.7904C251.717 68.2322 252.175 66.4471 252.121 64.6404C252.163 63.4123 251.946 62.1891 251.484 61.0503C251.023 59.9115 250.327 58.8826 249.441 58.0304C248.474 57.1443 247.34 56.459 246.106 56.0144C244.872 55.5698 243.561 55.3747 242.251 55.4404H225.441V74.1704ZM225.441 105.46H243.441C245.549 105.494 247.637 105.053 249.551 104.17C251.292 103.36 252.769 102.074 253.811 100.46C254.884 98.7271 255.426 96.718 255.371 94.6804C255.405 92.7014 254.933 90.7465 254.001 89.0004C253.1 87.3195 251.736 85.9316 250.071 85.0004C248.233 83.9987 246.164 83.4953 244.071 83.5404H225.441V105.46Z" fill="white"/>
<path d="M297.65 116.429C292.924 116.546 288.26 115.333 284.19 112.929C280.395 110.615 277.341 107.263 275.39 103.27C273.258 98.8449 272.199 93.9799 272.3 89.0695C272.197 84.1307 273.284 79.2397 275.47 74.8095C277.451 70.8378 280.524 67.5142 284.33 65.2295C288.434 62.9672 293.047 61.7867 297.734 61.7989C302.42 61.8112 307.027 63.0158 311.12 65.2995C314.907 67.6132 317.961 70.952 319.93 74.9295C321.992 79.3776 323.06 84.2216 323.06 89.1245C323.06 94.0274 321.992 98.8714 319.93 103.319C317.955 107.302 314.889 110.642 311.09 112.949C307.023 115.342 302.367 116.548 297.65 116.429V116.429ZM297.65 106.989C302.603 106.989 306.3 105.323 308.74 101.989C311.18 98.6561 312.403 94.3528 312.41 89.0795C312.41 83.6795 311.173 79.3462 308.7 76.0795C306.226 72.8128 302.543 71.1928 297.65 71.2195C294.717 71.0999 291.819 71.8968 289.36 73.4995C287.156 75.059 285.47 77.2429 284.52 79.7695C283.415 82.7363 282.879 85.8844 282.94 89.0495C282.94 94.4761 284.186 98.8095 286.68 102.049C289.173 105.289 292.83 106.939 297.65 106.999V106.989Z" fill="white"/>
<path d="M356.06 116.429C351.334 116.546 346.67 115.333 342.6 112.929C338.808 110.612 335.755 107.261 333.8 103.27C331.668 98.8449 330.609 93.9799 330.71 89.0695C330.607 84.1307 331.694 79.2397 333.88 74.8095C335.861 70.8378 338.935 67.5142 342.74 65.2295C346.844 62.9672 351.457 61.7867 356.144 61.7989C360.831 61.8112 365.437 63.0158 369.53 65.2995C373.317 67.6132 376.371 70.952 378.34 74.9295C380.402 79.3776 381.47 84.2216 381.47 89.1245C381.47 94.0274 380.402 98.8714 378.34 103.319C376.365 107.302 373.299 110.642 369.5 112.949C365.433 115.342 360.777 116.548 356.06 116.429V116.429ZM356.06 106.989C361.013 106.989 364.71 105.323 367.15 101.989C369.59 98.6561 370.813 94.3528 370.82 89.0795C370.82 83.6795 369.583 79.3462 367.11 76.0795C364.636 72.8128 360.953 71.1928 356.06 71.2195C353.127 71.0999 350.229 71.8968 347.77 73.4995C345.566 75.059 343.88 77.2429 342.93 79.7695C341.826 82.7363 341.29 85.8844 341.35 89.0495C341.35 94.4761 342.596 98.8095 345.09 102.049C347.583 105.289 351.24 106.939 356.06 106.999V106.989Z" fill="white"/>
<path d="M392 115L392.05 46H402.21V88.17L422.52 63.25H435.27L413.8 89.12L437.43 115H423.82L402.16 90.08V115H392Z" fill="white"/>
<path d="M442.211 115V46H451.271L476.271 97.89L501.151 46H510.311V115H500.821V67.8L478.541 115H474.001L451.681 67.75V115H442.211Z" fill="white"/>
<path d="M530.721 137.999L540.721 110.729L540.871 118.729L518.301 63.1992H528.741L545.611 106.079H542.541L558.641 63.1992H568.801L540.251 137.999H530.721Z" fill="white"/>
<path d="M576.289 115V46H617.159V56H586.299V75.46H611.409V85.52H586.299V115H576.289Z" fill="white"/>
<path d="M626.738 115.001V44.5508H636.738V115.001H626.738Z" fill="white"/>
<path d="M652.09 54.76V45H662.09V54.73L652.09 54.76ZM652.09 114.99V63.24H662.09V115L652.09 114.99Z" fill="white"/>
<path d="M697.001 116.431C692.566 116.546 688.204 115.289 684.511 112.831C680.963 110.372 678.163 106.98 676.421 103.031C674.527 98.6186 673.551 93.8673 673.551 89.0659C673.551 84.2644 674.527 79.5131 676.421 75.1008C678.193 71.1653 681.021 67.7975 684.591 65.3709C688.325 62.9333 692.713 61.6883 697.171 61.8008C701.559 61.6528 705.88 62.903 709.511 65.3709C712.91 67.8347 715.536 71.217 717.081 75.1209C718.855 79.5713 719.725 84.3305 719.641 89.1209C719.729 93.8697 718.869 98.5885 717.111 103.001C715.548 106.919 712.91 110.316 709.501 112.801C705.829 115.316 701.448 116.588 697.001 116.431V116.431ZM697.761 139.431C695.018 139.439 692.292 138.999 689.691 138.131C687.113 137.287 684.703 135.997 682.571 134.321C680.409 132.622 678.601 130.516 677.251 128.121L686.501 123.421C687.516 125.521 689.201 127.224 691.291 128.261C693.333 129.272 695.582 129.796 697.861 129.791C700.371 129.861 702.863 129.348 705.141 128.291C707.117 127.316 708.724 125.726 709.721 123.761C710.827 121.428 711.345 118.86 711.231 116.281V101.811H712.431V63.2408H721.291V116.381C721.291 117.751 721.241 119.061 721.151 120.311C721.053 121.564 720.876 122.81 720.621 124.041C720.024 127.242 718.577 130.223 716.431 132.671C714.28 134.999 711.577 136.746 708.571 137.751C705.101 138.915 701.46 139.483 697.801 139.431H697.761ZM698.391 107.371C701.26 107.498 704.091 106.672 706.441 105.021C708.575 103.372 710.161 101.117 710.991 98.5508C712 95.4941 712.486 92.2893 712.431 89.0709C712.487 85.8467 711.99 82.6368 710.961 79.5809C710.138 77.0384 708.57 74.8018 706.461 73.1608C704.208 71.5549 701.485 70.7456 698.721 70.8608C695.795 70.7381 692.912 71.597 690.531 73.3008C688.347 74.9912 686.692 77.2708 685.761 79.8709C684.685 82.817 684.157 85.9348 684.201 89.0709C684.158 92.2296 684.686 95.3702 685.761 98.3409C686.678 100.935 688.306 103.219 690.461 104.931C692.762 106.628 695.574 107.488 698.431 107.371H698.391Z" fill="white"/>
<path d="M734.699 115V46H743.699V83.23H744.899V115H734.699ZM771.069 115V89.54C771.064 87.4631 770.893 85.3899 770.559 83.34C770.247 81.2764 769.602 79.2771 768.649 77.42C767.726 75.6243 766.347 74.1034 764.649 73.01C762.632 71.8176 760.311 71.2374 757.969 71.34C756.237 71.3278 754.516 71.6257 752.889 72.22C751.279 72.8165 749.838 73.7945 748.689 75.07C747.388 76.5738 746.426 78.3407 745.869 80.25C745.136 82.7864 744.799 85.4207 744.869 88.06L738.639 85.71C738.554 81.4201 739.453 77.1677 741.269 73.28C742.921 69.8 745.552 66.8773 748.839 64.87C752.461 62.7739 756.597 61.7347 760.779 61.87C763.869 61.7719 766.943 62.3593 769.779 63.59C772.069 64.6335 774.093 66.1822 775.699 68.12C777.194 69.9466 778.371 72.0122 779.179 74.23C779.946 76.3234 780.489 78.4922 780.799 80.7C781.07 82.5414 781.217 84.3989 781.239 86.26V115H771.069Z" fill="white"/>
<path d="M787.93 71.2894V63.2894H823.3V71.2894H787.93ZM823.3 114.999C820.144 115.631 816.927 115.902 813.71 115.809C810.823 115.771 807.973 115.152 805.33 113.989C802.923 112.927 800.959 111.065 799.77 108.719C798.683 106.703 798.068 104.467 797.97 102.179C797.89 99.9594 797.85 97.4494 797.85 94.6294V48.8594H807.91V94.1394C807.91 96.2194 807.91 98.0294 807.99 99.5594C807.991 100.916 808.335 102.251 808.99 103.439C809.553 104.414 810.35 105.233 811.308 105.823C812.266 106.413 813.356 106.755 814.48 106.819C817.428 107.078 820.397 106.974 823.32 106.509L823.3 114.999Z" fill="white"/>
<path d="M91.3981 158.32C131.339 158.32 163.718 125.941 163.718 85.9997C163.718 46.0585 131.339 13.6797 91.3981 13.6797C51.4569 13.6797 19.0781 46.0585 19.0781 85.9997C19.0781 125.941 51.4569 158.32 91.3981 158.32Z" stroke="white" stroke-width="6.07" stroke-miterlimit="10"/>
<path d="M124.41 68.9996C128.57 73.5096 135.86 71.8696 141.74 72.3996C152.58 73.3996 163.4 74.2996 173.69 78.0796C177.35 79.4196 182.2 80.5196 181.86 85.5696C181.55 90.3696 176.76 91.4996 173.03 92.5696C161.421 95.9396 149.388 97.6234 137.3 97.5696C129.9 97.4496 124.48 99.8096 119.48 105.38C104.15 122.38 88.3397 139.05 72.7197 155.83L72.9197 155.61L59.6697 171.16C46.3497 158 45.9997 154.7 55.4797 142.63C66.1397 129.04 76.8597 115.49 88.8397 100.28C77.6797 99.4296 67.9497 98.7396 58.2297 97.9396C48.2297 97.1096 38.2297 96.1696 27.7497 95.2496C23.5297 100.09 23.5797 106.9 20.4097 113.58C14.4797 104.42 17.0597 90.6396 0.929688 85.9096C16.3197 80.1496 14.8397 66.7596 20.3497 56.5796C22.7697 63.2596 24.9397 69.2196 27.0997 75.1796L88.7497 70.3496C77.7497 56.3496 68.1597 42.7796 57.1097 30.4696C47.9397 20.2696 46.3297 11.2896 56.9997 0.849609" fill="white"/>
</svg>
