<svg width="640" height="512" viewBox="0 0 640 512" fill="none" xmlns="http://www.w3.org/2000/svg">
<g clip-path="url(#clip0_520_234)">
<path d="M238.1 161.3L197.8 20.4001C194.9 10.1701 202.6 2.81676e-05 213.2 2.81676e-05H269.4C280.9 2.81676e-05 291.5 6.15313 297.2 16.1201L397.7 192H514.3C548.5 192 608 221 608 256C608 292 548.5 320 514.3 320H440.6L630.8 469.1C641.2 477.3 643.1 492.4 634.9 502.8C626.7 513.2 611.6 515.1 601.2 506.9L9.19582 42.8901C-1.23618 34.7101 -3.06518 19.6301 5.11182 9.19613C13.2898 -1.23687 28.3698 -3.06487 38.8098 5.11213L238.1 161.3ZM41.5398 128.7L362.5 381.6L297.2 495.9C291.5 505.8 280.9 512 269.4 512H213.2C202.6 512 194.9 501.8 197.8 491.6L246.9 319.1H144L100.8 377.6C97.7798 381.6 93.0398 384 87.9998 384H46.0298C38.2798 384 31.9998 377.7 31.9998 369.1C31.9998 368.7 32.1798 367.4 32.5398 366.1L63.9998 255.1L32.5398 145.9C32.1798 144.6 31.9998 143.3 31.9998 142C31.9998 135.9 35.0998 130.6 41.5398 128.7Z" fill="white"/>
</g>
<defs>
<clipPath id="clip0_520_234">
<rect width="640" height="512" fill="white"/>
</clipPath>
</defs>
</svg>
