<svg width="600" height="610" viewBox="0 0 600 610" fill="none" xmlns="http://www.w3.org/2000/svg">
<path d="M507.297 51.3942C479.233 52.1055 453.109 36.1982 440.887 10.9146C436.878 2.70233 427.76 -1.63015 418.901 0.568423L321.453 24.1707L578.88 281.597L526.632 66.2022C524.433 57.3432 516.414 51.1355 507.297 51.3942Z" fill="white"/>
<path d="M596.917 348.783C601.832 341.088 600.797 331.001 594.331 324.534L587.606 317.809L299.4 29.5387L285.433 15.5713C281.681 11.8208 276.703 9.88086 271.724 9.88086C268.102 9.88086 264.481 10.9155 261.248 12.9847C249.415 20.6151 235.9 24.3656 222.385 24.3656C208.871 24.3656 195.291 20.5504 183.522 12.9847C180.289 10.9155 176.667 9.88086 173.046 9.88086C168.067 9.88086 163.088 11.8208 159.337 15.5713L5.69624 169.083C-0.770135 175.55 -1.86942 185.637 3.10969 193.267C18.3057 216.87 18.3057 247.456 3.10969 271.058C-1.80476 278.753 -0.770135 288.776 5.69624 295.242L229.433 518.979L314.659 604.206C318.41 607.956 323.389 609.896 328.368 609.896C331.99 609.896 335.61 608.862 338.844 606.792C350.677 599.162 364.192 595.411 377.706 595.411C391.221 595.411 404.801 599.226 416.57 606.792C419.803 608.862 423.424 609.896 427.046 609.896C432.024 609.896 437.003 607.956 440.754 604.206L594.266 450.694C600.732 444.228 601.767 434.075 596.787 426.38C582.109 403.489 581.72 374.067 595.559 350.853C596.077 350.141 596.529 349.495 596.917 348.783ZM444.505 260.129L328.239 312.248L360.507 344.515H418.122C419.868 344.515 421.485 345.227 422.714 346.39L431.314 354.99C434.547 358.224 433.513 363.72 429.309 365.531L377.836 387.582L355.657 439.054C353.846 443.257 348.35 444.292 345.117 441.059L336.516 432.458C335.288 431.23 334.641 429.614 334.641 427.867V370.252L302.374 337.984L250.255 454.315C248.38 458.452 243.013 459.422 239.78 456.254L227.106 443.58C225.683 442.157 225.037 440.217 225.231 438.213L244.242 279.916L197.36 233.035C196.843 232.518 196.39 231.871 196.067 231.16L182.099 200.509C179.642 195.077 185.204 189.452 190.635 191.973L221.285 205.941C221.997 206.264 222.643 206.717 223.16 207.234L270.041 254.115L428.338 235.104C430.278 234.846 432.283 235.557 433.705 236.98L446.379 249.654C449.613 252.822 448.643 258.254 444.505 260.129Z" fill="white"/>
</svg>
