<svg width="448" height="512" viewBox="0 0 448 512" fill="none" xmlns="http://www.w3.org/2000/svg">
<g clip-path="url(#clip0_512_199)">
<path d="M224.101 140.999C160.501 140.999 109.201 192.299 109.201 255.899C109.201 319.499 160.501 370.799 224.101 370.799C287.701 370.799 339.001 319.499 339.001 255.899C339.001 192.299 287.701 140.999 224.101 140.999ZM224.101 330.599C183.001 330.599 149.401 297.099 149.401 255.899C149.401 214.699 182.901 181.199 224.101 181.199C265.301 181.199 298.801 214.699 298.801 255.899C298.801 297.099 265.201 330.599 224.101 330.599V330.599ZM370.501 136.299C370.501 151.199 358.501 163.099 343.701 163.099C328.801 163.099 316.901 151.099 316.901 136.299C316.901 121.499 328.901 109.499 343.701 109.499C358.501 109.499 370.501 121.499 370.501 136.299ZM446.601 163.499C444.901 127.599 436.701 95.7992 410.401 69.5992C384.201 43.3992 352.401 35.1992 316.501 33.3992C279.501 31.2992 168.601 31.2992 131.601 33.3992C95.8008 35.0992 64.0008 43.2992 37.7008 69.4992C11.4008 95.6992 3.30078 127.499 1.50078 163.399C-0.599219 200.399 -0.599219 311.299 1.50078 348.299C3.20078 384.199 11.4008 415.999 37.7008 442.199C64.0008 468.399 95.7008 476.599 131.601 478.399C168.601 480.499 279.501 480.499 316.501 478.399C352.401 476.699 384.201 468.499 410.401 442.199C436.601 415.999 444.801 384.199 446.601 348.299C448.701 311.299 448.701 200.499 446.601 163.499V163.499ZM398.801 387.999C391.001 407.599 375.901 422.699 356.201 430.599C326.701 442.299 256.701 439.599 224.101 439.599C191.501 439.599 121.401 442.199 92.0008 430.599C72.4008 422.799 57.3008 407.699 49.4008 387.999C37.7008 358.499 40.4008 288.499 40.4008 255.899C40.4008 223.299 37.8008 153.199 49.4008 123.799C57.2008 104.199 72.3008 89.0992 92.0008 81.1992C121.501 69.4992 191.501 72.1992 224.101 72.1992C256.701 72.1992 326.801 69.5992 356.201 81.1992C375.801 88.9992 390.901 104.099 398.801 123.799C410.501 153.299 407.801 223.299 407.801 255.899C407.801 288.499 410.501 358.599 398.801 387.999Z" fill="#212121"/>
</g>
<defs>
<clipPath id="clip0_512_199">
<rect width="448" height="512" fill="white"/>
</clipPath>
</defs>
</svg>
