<svg width="512" height="512" viewBox="0 0 512 512" fill="none" xmlns="http://www.w3.org/2000/svg">
<path d="M448 192H64C28.65 192 0 220.7 0 256V352C0 369.67 14.33 384 32 384H64V480C64 497.67 78.33 512 96 512H416C433.67 512 448 497.67 448 480V384H480C497.67 384 512 369.67 512 352V256C512 220.7 483.3 192 448 192ZM384 448H128V352H384V448ZM432 296C418.75 296 408 285.25 408 272C408 258.73 418.75 248 432 248C445.25 248 456 258.73 456 272C456 285.3 445.3 296 432 296ZM128 64H357.5L384 90.51V160H448V77.25C448 68.766 444.625 60.63 438.625 54.63L393.375 9.38C387.4 3.375 379.2 0 370.8 0H96C78.34 0 64 14.33 64 32V160H128V64Z" fill="white"/>
</svg>
