<svg width="576" height="448" viewBox="0 0 576 448" fill="none" xmlns="http://www.w3.org/2000/svg">
<path d="M0 64C0 28.65 28.65 0 64 0H512C547.3 0 576 28.65 576 64V384C576 419.3 547.3 448 512 448H64C28.65 448 0 419.3 0 384V64ZM160 224C160 206.3 145.7 192 128 192C110.3 192 96 206.3 96 224C96 241.7 110.3 256 128 256C145.7 256 160 241.7 160 224ZM160 128C160 110.3 145.7 96 128 96C110.3 96 96 110.3 96 128C96 145.7 110.3 160 128 160C145.7 160 160 145.7 160 128ZM160 320C160 302.3 145.7 288 128 288C110.3 288 96 302.3 96 320C96 337.7 110.3 352 128 352C145.7 352 160 337.7 160 320ZM224 104C210.7 104 200 114.7 200 128C200 141.3 210.7 152 224 152H448C461.3 152 472 141.3 472 128C472 114.7 461.3 104 448 104H224ZM224 200C210.7 200 200 210.7 200 224C200 237.3 210.7 248 224 248H448C461.3 248 472 237.3 472 224C472 210.7 461.3 200 448 200H224ZM224 296C210.7 296 200 306.7 200 320C200 333.3 210.7 344 224 344H448C461.3 344 472 333.3 472 320C472 306.7 461.3 296 448 296H224Z" fill="white"/>
</svg>
