<svg width="576" height="512" viewBox="0 0 576 512" fill="none" xmlns="http://www.w3.org/2000/svg">
<path d="M549.656 124.083C543.375 100.433 524.869 81.807 501.372 75.486C458.782 64 288.001 64 288.001 64C288.001 64 117.221 64 74.6296 75.486C51.1326 81.808 32.6266 100.433 26.3456 124.083C14.9336 166.95 14.9336 256.388 14.9336 256.388C14.9336 256.388 14.9336 345.826 26.3456 388.693C32.6266 412.343 51.1326 430.193 74.6296 436.514C117.221 448 288.001 448 288.001 448C288.001 448 458.781 448 501.372 436.514C524.869 430.193 543.375 412.343 549.656 388.693C561.068 345.826 561.068 256.388 561.068 256.388C561.068 256.388 561.068 166.95 549.656 124.083V124.083ZM232.146 337.591V175.185L374.885 256.39L232.146 337.591V337.591Z" fill="#212121"/>
</svg>
